<svg aria-hidden="true" style="position: absolute; width: 0; height: 0; overflow: hidden;" version="1.1" xmlns="http://www.w3.org/2000/svg" xmlns:xlink="http://www.w3.org/1999/xlink">
<defs>
<symbol id="icon-body-repair" viewBox="0 0 32 32">
<path fill="#40ec1e" style="fill: var(--color1, #40ec1e)" d="M19.52 10.512h1.2l0.080 0.032 0.032 0.064v0.224l-0.048 0.080-0.032 0.016-1.072 0.016-0.336 0.032-0.208 0.064-0.144 0.096-0.112 0.096-0.112 0.128-0.16 0.24-0.256 0.4-0.128 0.208-0.176 0.288-0.16 0.24-0.16 0.256-0.24 0.352-0.144 0.224-0.224 0.352-0.16 0.24-0.16 0.256-0.112 0.176-0.112 0.112-0.144 0.016-0.16 0.016h-2.608l-0.24 0.032-0.048 0.096-0.048 0.192-0.064 0.144-0.096 0.128-0.16 0.144-0.128 0.112-0.144 0.192-0.112 0.176-0.048 0.128v0.144l0.048 0.144 0.192 0.288 0.080 0.112 0.112 0.272-0.016 0.096-0.16 0.24-0.144 0.16-0.096 0.144-0.048 0.128-0.016 0.144-0.016 0.368-0.016 1.008v0.368l0.096 0.016 0.72 0.016 2.128 0.016 0.128 0.048 0.080 0.080 0.032 0.096 0.048 0.544 0.032 0.144 0.016 0.032h0.4l0.032-0.112 0.080-0.528 0.112-0.368 0.128-0.272 0.176-0.32 0.16-0.208 0.144-0.16 0.208-0.208 0.224-0.16 0.24-0.144 0.336-0.144 0.256-0.064 0.24-0.032h0.8l0.384 0.064 0.256 0.080 0.256 0.128 0.272 0.176 0.224 0.192 0.208 0.208 0.192 0.272 0.144 0.24 0.144 0.304 0.080 0.24 0.064 0.32 0.064 0.448v0.048h0.384l1.456 0.016 0.080 0.048 0.032 0.080v0.144l-0.064 0.128-0.064 0.032h-1.088l-0.784-0.016-0.096 0.24-0.112 0.272-0.128 0.256-0.144 0.224-0.144 0.192-0.176 0.192-0.16 0.144-0.288 0.208-0.304 0.16-0.336 0.112-0.4 0.080-0.192 0.016h-0.352l-0.304-0.032-0.32-0.064-0.352-0.128-0.272-0.144-0.208-0.16-0.16-0.144-0.192-0.192-0.16-0.224-0.144-0.24-0.192-0.368-0.16-0.368-0.032-0.096-0.32 0.080-0.224 0.112-0.080 0.096-0.112 0.048-0.352 0.032h-1.664l-0.048-0.048-0.048-0.144v-0.128l0.016-0.064 0.096-0.016 1.072-0.016 0.64-0.016 0.080-0.032v-0.384l-0.016-0.368-0.016-0.032-0.080-0.016h-3.056l-0.208 0.032-0.032 0.112v0.4l0.032 0.208 0.032 0.064 0.096 0.032 0.608 0.016 0.080 0.032 0.032 0.080v0.192l-0.080 0.080-0.048 0.016h-0.816l-0.144-0.048-0.080-0.080-0.080-0.128-0.048-0.128-0.032-0.304v-0.48l0.048-0.256 0.080-0.112 0.224-0.112 0.272-0.096 0.016-0.016v-0.336l-0.016-0.72v-0.352l0.016-0.368 0.032-0.224 0.096-0.192 0.144-0.176 0.096-0.128 0.064-0.112-0.016-0.080-0.080-0.16-0.192-0.272-0.080-0.192-0.016-0.080v-0.16l0.064-0.256 0.144-0.304 0.144-0.192 0.336-0.336 0.112-0.192 0.112-0.256 0.080-0.128 0.128-0.112 0.128-0.048 0.112-0.016h2.848l0.096-0.080 0.16-0.256 0.128-0.208 0.16-0.24 0.16-0.256 0.288-0.432 0.24-0.368 0.208-0.336 0.144-0.224 0.112-0.192 0.16-0.24 0.208-0.288 0.144-0.192 0.144-0.144 0.224-0.144 0.16-0.080 0.16-0.048zM18.624 18.384l-0.304 0.048-0.288 0.096-0.24 0.128-0.224 0.16-0.192 0.176-0.112 0.112-0.16 0.208-0.128 0.208-0.096 0.192-0.096 0.288-0.048 0.208-0.016 0.144v0.576l0.064 0.32 0.096 0.256 0.144 0.24 0.128 0.176 0.144 0.16 0.112 0.128 0.192 0.16 0.224 0.144 0.304 0.144 0.352 0.096 0.288 0.032h0.304l0.304-0.032 0.336-0.096 0.256-0.112 0.224-0.144 0.208-0.16 0.208-0.208 0.176-0.256 0.176-0.32 0.128-0.368 0.032-0.24v-0.448l-0.048-0.32-0.112-0.336-0.128-0.272-0.128-0.192-0.144-0.176-0.176-0.176-0.208-0.16-0.208-0.128-0.224-0.112-0.32-0.096-0.352-0.048zM11.12 8.976h0.176l0.16 0.064 0.16 0.144 0.128 0.112 0.784 0.784 0.032 0.016v0.032l0.064 0.032 0.304 0.304 0.112 0.128 0.144 0.16 0.096 0.176 0.016 0.064v0.112l-0.144 0.224-0.16 0.176-0.112 0.128-0.24 0.256-0.16 0.144-0.24 0.16-0.112 0.016-0.16-0.048-0.192-0.128-0.16-0.128-0.128-0.080-0.096 0.048-0.16 0.144-0.128 0.128-0.128 0.112-0.224 0.224-0.112 0.128-0.144 0.144-0.112 0.128-0.688 0.688-0.128 0.112-0.192 0.176-0.176 0.112-0.144 0.064-0.144 0.032h-0.192l-0.176-0.064-0.144-0.096-0.096-0.112-0.112-0.224-0.016-0.080v-0.192l0.048-0.176 0.064-0.128 0.16-0.208 0.096-0.112 0.112-0.096 0.096-0.112h0.032l0.016-0.048 0.128-0.112 1.184-1.184 0.128-0.112 0.112-0.112 0.064-0.080-0.016-0.080-0.096-0.144-0.128-0.176-0.128-0.224-0.016-0.112 0.144-0.24 0.144-0.176 0.16-0.16 0.112-0.128 0.112-0.112 0.176-0.144 0.176-0.112zM11.152 9.488l-0.16 0.096-0.432 0.432-0.032 0.048 0.016 0.080 0.096 0.144 0.176 0.192 0.16 0.144 0.16 0.16 0.128 0.112 0.288 0.288 0.080 0.064 0.112 0.128 0.272 0.256 0.080 0.064h0.080l0.208-0.16 0.336-0.336 0.064-0.112-0.016-0.096-0.096-0.128-0.144-0.16-0.416-0.416-0.128-0.112-0.416-0.416-0.112-0.128-0.128-0.112-0.064-0.032zM10.848 11.12l-0.128 0.048-0.128 0.096-0.112 0.112-0.096 0.080-0.112 0.128-0.784 0.784-0.128 0.112-0.176 0.176-0.128 0.112-0.32 0.32-0.112 0.176-0.016 0.064v0.176l0.064 0.096 0.096 0.048 0.144-0.016 0.128-0.064 0.224-0.176 0.192-0.192 0.128-0.112 0.208-0.224 0.656-0.656 0.080-0.096 0.064-0.048v-0.032l0.048-0.016 0.096-0.112 0.096-0.080 0.112-0.128 0.144-0.16 0.032-0.080-0.016-0.128-0.128-0.144-0.080-0.064z"></path>
<path fill="#40ec1e" style="fill: var(--color1, #40ec1e)" d="M19.568 11.488h3.888l0.064 0.032 0.016 0.048v0.224l-0.048 0.112-0.016 0.016h-3.632l-0.256 0.016-0.096 0.080-0.192 0.304-0.4 0.64-0.208 0.336-0.336 0.512-0.224 0.368-0.080 0.112-0.176 0.352-0.048 0.144 0.016 0.096 0.112 0.048 0.272 0.016 0.688 0.016 0.048 0.032 0.016 0.048v0.32l-0.048 0.048h-1.072l-0.192-0.032-0.096-0.080-0.128-0.208-0.048-0.144v-0.16l0.032-0.224 0.128-0.32 0.16-0.272 0.256-0.4 0.176-0.256 0.224-0.352 0.208-0.336 0.096-0.144 0.192-0.304 0.208-0.288 0.192-0.256 0.080-0.064 0.128-0.064zM18.832 19.648l0.336 0.016 0.176 0.048 0.176 0.112 0.16 0.144 0.144 0.256 0.048 0.24v0.144l-0.048 0.304-0.080 0.16-0.16 0.192-0.208 0.144-0.144 0.064-0.208 0.048h-0.352l-0.16-0.048-0.192-0.112-0.144-0.144-0.080-0.144-0.080-0.176-0.064-0.256v-0.256l0.048-0.16 0.112-0.192 0.112-0.128 0.208-0.144 0.128-0.064zM18.816 20.064l-0.144 0.032-0.144 0.080-0.080 0.080-0.048 0.096-0.016 0.080v0.224l0.048 0.16 0.096 0.128 0.16 0.112 0.096 0.032h0.256l0.144-0.064 0.128-0.112 0.080-0.128 0.016-0.064v-0.208l-0.048-0.16-0.096-0.128-0.128-0.112-0.128-0.048zM23.376 14.944l0.112 0.016 0.048 0.080v0.288l-0.032 0.048-0.048 0.016-0.464 0.016h-3.312l-0.064-0.128v-0.144l0.032-0.16 0.032-0.016zM15.392 16.992h0.096l0.096 0.064 0.016 0.016v0.112l-0.096 0.192-0.16 0.176-0.112 0.128-0.112 0.096-0.144 0.064-0.192 0.032-0.432 0.032-0.128 0.032-0.144 0.080-0.048 0.048h-0.032l-0.032 0.064-0.176 0.208-0.128 0.16-0.128 0.064-0.128 0.016-0.064-0.080-0.016-0.048v-0.128l0.096-0.176 0.144-0.192 0.144-0.16 0.16-0.144 0.128-0.112 0.112-0.048 0.080-0.016 0.352-0.016 0.224-0.048 0.224-0.112 0.080-0.064 0.080-0.080 0.128-0.112zM21.52 10.496l1.056 0.016h0.864l0.080 0.048 0.016 0.032v0.24l-0.032 0.096-0.016 0.016h-1.952l-0.032-0.032v-0.4zM15.056 16h0.128l0.080 0.064 0.048 0.080-0.016 0.112-0.176 0.208-0.192 0.192-0.144 0.112-0.16 0.064-0.128 0.032-0.192 0.016h-0.448l-0.16-0.048-0.080-0.080-0.016-0.048v-0.176l0.048-0.064 0.096-0.016h0.496l0.288-0.048 0.176-0.096 0.272-0.272zM22.736 15.952h0.128l0.064 0.064 0.016 0.080v0.16l-0.064 0.080-0.096 0.032h-1.088l-0.096-0.048-0.048-0.064v-0.112l0.064-0.128 0.080-0.048zM12.272 13.296h0.144l0.112 0.064 0.064 0.128 0.032 0.144v0.208l-0.032 0.224-0.064 0.112-0.096 0.080h-0.128l-0.080-0.048-0.064-0.144v-0.48l0.032-0.192 0.048-0.080zM11.088 13.68h0.096l0.176 0.096 0.208 0.208 0.112 0.080 0.096 0.176 0.016 0.080-0.048 0.080-0.064 0.064-0.192-0.016-0.128-0.064-0.16-0.144-0.144-0.176-0.064-0.128-0.016-0.112 0.064-0.112zM11.264 14.88h0.112l0.112 0.048 0.032 0.032 0.016 0.144-0.064 0.144-0.064 0.048h-0.464l-0.176-0.016-0.144-0.064-0.064-0.064v-0.096l0.048-0.080 0.16-0.064 0.080-0.016h0.336z"></path>
</symbol>
<symbol id="icon-brush-off" viewBox="0 0 32 32">
<path fill="none" stroke="#39ff14" style="stroke: var(--color2, #39ff14)" stroke-linejoin="round" stroke-linecap="round" stroke-miterlimit="4" stroke-width="0.5333" d="M16.040 13.116c1.772-1.823 4.128-3.071 6.765-3.442l0.062-0.007c-0.378 2.696-1.624 5.050-3.442 6.819l-0.003 0.003M14.724 14.739c-0.473 0.693-0.892 1.487-1.217 2.328l-0.027 0.080M17.812 17.798c-0.699 0.479-1.498 0.901-2.345 1.228l-0.080 0.027M9.667 9.667l13.2 13.2M9.667 19.933c0-1.62 1.313-2.933 2.933-2.933s2.933 1.313 2.933 2.933c0 1.62-1.313 2.933-2.933 2.933v0h-2.933v-2.933z"></path>
</symbol>
<symbol id="icon-settings-dollar" viewBox="0 0 32 32">
<path fill="none" stroke="#39ff14" style="stroke: var(--color2, #39ff14)" stroke-linejoin="round" stroke-linecap="round" stroke-miterlimit="4" stroke-width="0.5333" d="M17.028 22.622c-0.661 0.487-1.755 0.247-1.989-0.721-0.139-0.559-0.636-0.967-1.229-0.967-0.243 0-0.471 0.069-0.664 0.188l0.005-0.003c-1.132 0.69-2.427-0.605-1.738-1.738 0.116-0.187 0.185-0.415 0.185-0.658 0-0.592-0.407-1.089-0.957-1.226l-0.009-0.002c-1.288-0.313-1.288-2.144 0-2.457 0.559-0.139 0.967-0.636 0.967-1.229 0-0.243-0.069-0.471-0.188-0.664l0.003 0.005c-0.69-1.132 0.605-2.427 1.738-1.738 0.188 0.116 0.415 0.185 0.659 0.185 0.592 0 1.089-0.408 1.226-0.958l0.002-0.009c0.313-1.288 2.144-1.288 2.457 0 0.139 0.559 0.636 0.967 1.229 0.967 0.243 0 0.471-0.069 0.664-0.188l-0.005 0.003c1.132-0.69 2.427 0.605 1.738 1.738-0.116 0.187-0.184 0.414-0.184 0.658 0 0.4 0.186 0.757 0.477 0.989l0.003 0.002M18.467 16.267c-0-1.215-0.985-2.2-2.2-2.2s-2.2 0.985-2.2 2.2 0.985 2.2 2.2 2.2c0.34 0 0.662-0.077 0.949-0.215l-0.013 0.006M22.867 18.467h-1.834c-0.608 0-1.1 0.492-1.1 1.1s0.492 1.1 1.1 1.1v0h0.734c0.608 0 1.1 0.492 1.1 1.1s-0.492 1.1-1.1 1.1v0h-1.834M21.4 22.867v0.733M21.4 17.733v0.733"></path>
</symbol>
<symbol id="icon-tool" viewBox="0 0 32 32">
<path fill="none" stroke="#39ff14" style="stroke: var(--color2, #39ff14)" stroke-linejoin="miter" stroke-linecap="butt" stroke-miterlimit="4" stroke-width="0.5333" d="M10.434 9.601l-0.834 0.834 1.834 2.567c0.153 0.213 0.4 0.349 0.678 0.349 0 0 0 0 0 0h0.059c0 0 0.001 0 0.001 0 0.23 0 0.438 0.093 0.589 0.244v0l2.229 2.229-2.181 2.212c-0.212-0.065-0.455-0.102-0.707-0.102-1.381 0-2.501 1.119-2.502 2.5v0c0.001 1.38 1.12 2.499 2.5 2.499s2.5-1.119 2.5-2.5c0-0.252-0.037-0.496-0.107-0.726l0.005 0.018 2.212-2.181 0.807 0.807-0.254 0.762c-0.027 0.078-0.043 0.169-0.043 0.263 0 0.23 0.093 0.439 0.244 0.589l2.725 2.725c0.151 0.151 0.359 0.245 0.589 0.245s0.439-0.094 0.589-0.245l1.321-1.322c0.151-0.151 0.245-0.359 0.245-0.589s-0.094-0.439-0.245-0.589l-2.725-2.725c-0.151-0.151-0.359-0.244-0.589-0.244-0.094 0-0.185 0.016-0.269 0.044l0.006-0.002-0.762 0.254-0.8-0.8 2.234-2.203c0.193 0.054 0.415 0.084 0.645 0.084 1.383 0 2.504-1.121 2.504-2.504 0-0.228-0.031-0.449-0.088-0.659l0.004 0.018-1.783 1.784-1.465-0.303-0.303-1.464 1.785-1.784c-0.195-0.054-0.418-0.086-0.649-0.086-1.381 0-2.5 1.119-2.5 2.5 0 0.232 0.032 0.457 0.091 0.67l-0.004-0.018-2.2 2.231-2.224-2.222c-0.151-0.151-0.244-0.359-0.244-0.589v0-0.059c0-0 0-0.001 0-0.002 0-0.278-0.137-0.525-0.346-0.676l-0.002-0.002-2.567-1.834zM18.471 18.473c0.075-0.076 0.18-0.123 0.295-0.123s0.22 0.047 0.295 0.123l2.428 2.429c0.075 0.075 0.122 0.18 0.122 0.295 0 0.23-0.187 0.417-0.417 0.417-0.115 0-0.219-0.047-0.295-0.122l-2.429-2.428c-0.076-0.075-0.122-0.18-0.122-0.295s0.047-0.22 0.122-0.295v0zM12.1 18.767l0.393 0.202 0.441 0.021 0.239 0.371 0.371 0.239 0.021 0.441 0.202 0.393-0.202 0.393-0.021 0.441-0.371 0.239-0.239 0.371-0.441 0.021-0.392 0.202-0.393-0.202-0.441-0.021-0.239-0.371-0.371-0.239-0.021-0.441-0.202-0.393 0.202-0.393 0.021-0.441 0.371-0.239 0.239-0.371 0.441-0.022 0.392-0.202z"></path>
</symbol>
<symbol id="icon-logo" viewBox="0 0 240 32">
<path fill="none" stroke="#fefefe" style="stroke: var(--color3, #fefefe)" stroke-linejoin="miter" stroke-linecap="butt" stroke-miterlimit="10" stroke-width="1.2308" d="M228.338 19.43l-9.194-0.006-11.668 11.702h-8.929l11.508-11.819c-7.44-0.782-11.157-4.996-11.157-12.644v-5.79h40.209v30.258h-7.36v-23.134h-25.723c0.234 1.489 0.775 2.628 1.625 3.428 0.849 0.794 2.018 1.194 3.502 1.194h17.188v6.81zM192.954 31.132h-7.36v-30.258h7.36v30.258zM141.772 31.132l0.006-30.258h40.209v5.79c0 8.509-4.609 12.761-13.822 12.761h-15.625v-6.811h17.188c1.489 0 2.658-0.4 3.502-1.194 0.849-0.794 1.391-1.938 1.625-3.427h-25.723v23.14h-7.36z"></path>
<path fill="none" stroke="#39ff14" style="stroke: var(--color2, #39ff14)" stroke-linejoin="miter" stroke-linecap="butt" stroke-miterlimit="10" stroke-width="1.2308" d="M136.258 0.874v15.228c0 2.351-0.332 4.455-0.997 6.325-0.665 1.865-1.643 3.446-2.935 4.738s-2.88 2.276-4.757 2.953c-1.877 0.677-4.018 1.015-6.418 1.015h-25.058v-15.192c0-2.295 0.338-4.381 1.015-6.245s1.662-3.452 2.954-4.756 2.874-2.307 4.738-3.015c1.865-0.708 4-1.058 6.4-1.058l25.058 0.006z"></path>
<path fill="none" stroke="#39ff14" style="stroke: var(--color2, #39ff14)" stroke-linejoin="miter" stroke-linecap="butt" stroke-miterlimit="10" stroke-width="1.2308" d="M128.898 7.999h-17.538c-1.514 0-2.782 0.129-3.797 0.394-1.015 0.258-1.828 0.708-2.425 1.335-0.603 0.628-1.034 1.452-1.292 2.492-0.258 1.033-0.394 2.331-0.394 3.9v7.888h17.538c1.489 0 2.732-0.123 3.742-0.369 1.003-0.246 1.815-0.677 2.425-1.298 0.615-0.615 1.058-1.434 1.329-2.474 0.277-1.033 0.412-2.332 0.412-3.9v-7.967zM92.135 7.999h-13.902v23.134h-7.36v-23.134h-5.089c-3.212 0-4.948 1.538-5.206 4.622h-6.929c0.628-7.827 5.065-11.746 13.311-11.746h25.175v7.125zM51.612 31.132h-37.778v-15.191c0-2.351 0.332-4.455 0.997-6.325 0.665-1.865 1.643-3.446 2.935-4.738s2.88-2.282 4.757-2.978c1.877-0.689 4.018-1.040 6.418-1.040h22.671v7.137h-22.511c-5.274 0-7.908 2.708-7.908 8.122v7.888h30.418v7.124z"></path>
<path fill="none" stroke="#fefefe" style="stroke: var(--color3, #fefefe)" stroke-linejoin="miter" stroke-linecap="butt" stroke-miterlimit="10" stroke-width="1.2308" d="M8.234 31.132h-7.36v-30.258h7.36v30.258z"></path>
</symbol>
</defs>
</svg>
