<svg width="64" height="64" viewBox="0 0 64 64" fill="none" xmlns="http://www.w3.org/2000/svg">
<rect width="64" height="64" fill="#2B2A29"/>
<path d="M55.9311 36.6314C55.9337 36.7234 55.9208 36.8167 55.9143 36.9164C55.6928 36.8659 55.6837 36.7351 55.6967 36.577M55.5477 36.3063C55.5192 36.3115 55.492 36.3154 55.4635 36.3206C55.378 36.1016 55.2926 35.884 55.2071 35.6651C55.1773 35.6768 55.1488 35.6884 55.1203 35.6988C55.2576 36.0744 55.3612 36.4656 55.5413 36.8192C55.7964 37.3231 56.2317 37.3205 56.4959 36.8205C56.6591 36.5123 56.7951 36.1794 56.8819 35.8413C57.2316 34.4773 57.2549 33.0901 57.0866 31.6989C57.014 31.1069 56.8948 30.5189 56.5555 30.0085M56.1941 29.9943C56.6112 30.2365 56.8068 30.6756 56.707 31.0629M33.692 40.7194C34.5456 40.6469 35.3928 40.4966 36.2451 40.3995C36.5236 40.3684 36.622 40.2544 36.6661 39.9733C36.9212 38.2959 37.1868 36.6198 37.4795 34.9475C37.6894 33.7455 37.9795 32.5616 38.5624 31.4722C38.9393 30.7663 39.3655 30.094 39.982 29.5733C41.3499 28.4179 42.3563 28.5461 43.5623 29.3129C44.3446 29.8103 44.9392 30.5033 45.5156 31.2132C45.7319 31.48 45.9469 31.7481 46.1438 32.0292C46.2474 32.1769 46.3549 32.2157 46.5298 32.1859C47.7047 31.9878 48.8795 31.7857 50.0582 31.6108C51.6217 31.3803 53.1877 31.1691 54.755 30.9632C54.9778 30.9334 55.0594 30.8531 55.1255 30.6355C55.2589 30.1976 55.4286 29.7663 55.6332 29.357C55.8573 28.9075 56.2783 28.8661 56.5438 29.287C56.7588 29.629 56.9117 30.0318 57.0049 30.4282C57.4337 32.2468 57.6021 34.0836 57.2135 35.9333C57.1202 36.3788 56.9674 36.8218 56.7822 37.2389C56.5516 37.7596 56.2459 37.9086 55.6915 37.8076C54.562 37.6016 53.4662 37.7622 52.3768 38.0601C50.9636 38.4461 49.5621 38.8619 48.2254 39.4746C47.2733 39.9111 46.4327 40.4966 45.6723 41.2207C45.0855 41.779 44.4483 42.288 43.8123 42.7919C43.1685 43.3023 42.3706 43.4836 41.6128 43.7478C40.6504 44.0833 39.6556 44.2271 38.6401 44.2893C34.5975 44.5367 30.5535 44.6766 26.5031 44.6105C24.0705 44.5704 31.7232 40.8865 33.6946 40.7194H33.692ZM37.3059 40.3179C37.1285 40.4707 37.201 40.6287 37.293 40.779C38.8253 43.288 41.6776 43.7815 43.811 42.2673C45.5648 41.0225 46.4456 39.2674 46.6295 37.1495C46.7552 35.7079 46.5739 34.3167 45.8226 33.0447C44.8265 31.3582 42.9729 29.9956 40.4743 30.8336C40.0779 30.9671 39.7308 31.2572 39.3732 31.4942C39.2256 31.5914 39.1932 31.752 39.2644 31.9282C39.4315 32.3466 39.5883 32.7688 39.7541 33.1872C39.8098 33.3284 39.8642 33.489 40.0805 33.3854C40.2683 33.296 40.4082 33.2002 40.311 32.9528C40.153 32.5499 40.0028 32.1432 39.8629 31.7339C39.8383 31.6613 39.8538 31.5253 39.9056 31.4826C40.2424 31.2041 40.6336 31.0655 41.0934 31.059C41.1167 31.5707 41.1375 32.0655 41.1621 32.559C41.1698 32.7248 41.1724 32.8815 41.4224 32.8712C41.6323 32.8634 41.7553 32.8297 41.7722 32.5797C41.7994 32.1665 41.8434 31.752 41.9224 31.3453C41.9872 31.0098 42.096 30.9619 42.4224 31.0357C42.5895 31.0733 42.7553 31.1212 42.9159 31.1782C43.6141 31.4243 44.2449 31.7779 44.7591 32.3336C44.4211 32.8129 44.0895 33.2818 43.7462 33.7688C43.9081 33.8944 44.0545 34.0097 44.2177 34.1367C44.5959 33.7351 44.9599 33.3517 45.3718 32.9139C45.5881 33.3504 45.7824 33.7442 45.9897 34.1652C45.5804 34.2882 45.2462 34.3983 44.9068 34.4851C44.64 34.5538 44.5195 34.6859 44.6076 34.9657C44.6257 35.0227 44.6335 35.0848 44.6503 35.1664C45.0648 35.103 45.4664 35.046 45.8653 34.9773C46.0972 34.9385 46.2319 35.0201 46.2539 35.2571C46.2941 35.7066 46.3394 36.1548 46.3575 36.6055C46.3679 36.8633 46.2565 36.9281 46.0156 36.8335C45.8692 36.7765 45.7306 36.7014 45.5661 36.6237C45.5363 36.7454 45.5143 36.8309 45.4923 36.9177C45.4029 37.2752 45.3174 37.6353 45.2203 37.9915C45.1762 38.1547 45.0648 38.2221 44.89 38.1819C44.6529 38.1275 44.4003 38.1146 44.1775 38.0265C43.6076 37.8024 43.048 37.5524 42.4898 37.2985C42.3188 37.2208 42.2203 37.2519 42.1219 37.4643C43.2462 38.2221 44.4314 38.8762 45.7332 39.4358C45.4897 39.8257 45.2695 40.178 45.0117 40.5899C44.2242 39.2505 42.9224 38.6534 41.8279 37.941C41.438 38.1715 41.1025 38.3749 40.7631 38.5679C40.6504 38.6327 40.5494 38.6728 40.5701 38.8425C40.6401 39.4073 40.7061 39.972 40.7515 40.5394C40.8059 41.2375 40.8369 41.9383 40.8836 42.7336C40.4108 42.617 40.0287 42.5212 39.6647 42.4318C39.7839 41.6818 39.8862 41.0044 40.0002 40.3295C40.1686 39.3347 39.9263 38.4539 39.302 37.6664C39.153 37.4786 38.9898 37.4138 38.7632 37.4708C38.4575 37.5472 38.1466 37.6081 37.8422 37.6923C37.4976 37.7881 37.3733 38.0433 37.4782 38.4436C37.7166 38.3632 37.9523 38.2791 38.1906 38.2052C39.0494 37.9397 38.8797 37.7907 39.3668 38.7233C39.78 39.5122 39.5973 40.3243 39.2878 41.1093C39.0093 41.8152 38.8279 41.8606 38.2645 41.3347C37.929 41.0212 37.6324 40.6676 37.3046 40.3166L37.3059 40.3179ZM54.7433 32.4968L54.654 32.4852C54.584 32.9515 54.4895 33.4165 54.4519 33.8854C54.4014 34.524 54.4195 34.5201 53.7978 34.7014C51.7356 35.3024 49.6748 35.9035 47.6153 36.5123C47.1865 36.6392 47.0725 36.8685 47.1503 37.305C47.1878 37.5148 47.263 37.5679 47.478 37.4967C48.5272 37.1444 49.5828 36.8128 50.6333 36.4656C51.7356 36.1016 52.8626 35.8387 54.0232 35.8646C54.4713 35.875 54.6773 35.6859 54.8703 35.3594C54.9843 35.1677 55.0063 34.9929 54.8703 34.8102C54.6553 34.524 54.6268 34.1975 54.6514 33.8556C54.6851 33.4022 54.7135 32.9502 54.7433 32.4968Z" stroke="#FEFEFE" stroke-width="0.5" stroke-miterlimit="10"/>
<path d="M15.6368 25.918C16.3428 25.6252 17.0293 25.2651 17.7599 25.0527C19.1795 24.6395 20.6134 24.2729 22.0577 23.9543C24.0434 23.5165 25.9293 22.795 27.8024 22.0346C30.1598 21.0774 32.5833 20.3378 35.0846 19.878C36.1908 19.6746 37.319 19.5917 38.4446 19.4997C34.9693 20.4375 31.6831 21.9025 28.2816 22.9621C28.8645 22.9621 29.4565 22.9776 30.0471 22.9582C30.8321 22.9323 31.617 22.839 32.402 22.8455C33.6947 22.8572 34.8812 22.4997 36.0107 21.9168C37.0612 21.3753 38.0961 20.8015 39.1389 20.2432C40.1363 19.7096 41.2036 19.4673 42.3318 19.457C43.2087 19.4492 44.0792 19.4842 44.9392 19.6746C45.0001 19.6888 45.061 19.707 45.1206 19.7277C45.1426 19.7355 45.1607 19.7536 45.1607 19.7536C44.403 20.3132 43.6297 20.8533 42.8914 21.4375C42.1479 22.0256 41.4976 22.7121 40.8914 23.5178C41.1906 23.5178 41.4367 23.5281 41.6841 23.5165C43.0015 23.4556 44.3188 23.3843 45.6361 23.3261C45.8822 23.3157 46.0584 23.2134 46.1491 22.9958C46.3641 22.4802 46.7527 22.2639 47.2967 22.26C48.0648 22.2548 48.8316 22.2302 49.5998 22.2225C49.9469 22.2186 50.2189 22.3934 50.4572 22.6305C50.6697 22.8416 50.8769 23.0553 51.2124 23.0579C51.2798 23.0579 51.3704 23.1227 51.4093 23.1823C51.6839 23.6136 51.9481 24.0514 52.2409 24.5268C51.6049 24.5268 51.0324 24.5242 50.4598 24.5268C49.9093 24.5307 49.3601 24.5333 48.8096 24.554C48.6697 24.5592 48.5259 24.611 48.3951 24.668C47.7773 24.9348 47.6128 25.5773 48.0117 26.1161C48.1581 26.313 48.2928 26.5177 48.3977 26.6679C48.1827 26.699 47.8174 26.7521 47.4521 26.804C46.3369 26.9646 45.2294 26.9296 44.1608 26.5578C43.6439 26.3778 43.1776 26.0566 42.6647 25.8623C42.0948 25.646 41.5067 25.4504 40.9083 25.3428C40.214 25.2172 39.5585 25.4646 38.9225 25.7379C37.2879 26.4387 36.262 27.6938 35.6286 29.3156C35.4913 29.6666 35.3371 30.0098 35.1908 30.3557C35.1649 30.3557 35.139 30.3544 35.1131 30.3531V28.3739C33.1584 28.7625 31.2777 29.1316 29.3995 29.5137C27.2687 29.9464 25.1159 30.173 22.945 30.2313C22.432 30.2456 21.9165 30.1925 21.4048 30.1445C20.8841 30.0966 20.4528 29.8635 20.0707 29.4956C19.3971 28.8454 18.6484 28.2949 17.7417 28.0008C17.5707 27.9451 17.3959 27.9063 17.2106 27.8091C17.3207 27.7703 17.4283 27.7223 17.5409 27.6951C18.7339 27.4102 19.9463 27.19 21.1173 26.8325C22.8154 26.313 24.4877 25.7016 26.1651 25.1162C28.2479 24.3895 30.402 23.9931 32.5859 23.7444C33.797 23.6071 35.012 23.5035 36.2244 23.3843C36.2762 23.3792 36.3281 23.3701 36.3799 23.317C35.8501 23.2833 35.3203 23.238 34.7892 23.2185C32.1481 23.1201 29.5147 23.2457 26.8905 23.5605C24.5952 23.8364 22.2999 24.1343 20.0512 24.6771C18.6951 25.0048 17.3726 25.4711 16.0345 25.8765C15.9153 25.9128 15.7988 25.9594 15.6809 26.0009M30.7077 24.826V24.7328C30.1261 24.7936 29.5316 24.7975 28.9655 24.9245C26.9021 25.3869 24.9566 26.1783 23.0978 27.1796C22.3634 27.5747 21.6665 28.0306 21.1095 28.6627C20.9813 28.8078 20.9256 29.015 20.8362 29.1951C21.0227 29.2378 21.2144 29.3298 21.3971 29.3156C22.34 29.2365 23.2908 29.1847 24.2221 29.0241C26.3115 28.664 28.3943 28.2586 30.4746 27.8467C31.2777 27.6874 32.0704 27.4684 32.8631 27.2625C33.2297 27.1679 33.3644 26.9102 33.3579 26.5319C33.345 25.8195 33.2258 25.633 32.5237 25.7081C31.5212 25.8143 30.5251 25.9905 29.5355 26.1861C27.7246 26.5449 25.9591 27.0514 24.2843 27.8532C23.7649 28.1018 23.217 28.2974 22.6729 28.4879C22.3388 28.6044 21.9851 28.6666 21.6406 28.7534C21.6263 28.7132 21.6121 28.6731 21.5991 28.6342C24.2597 26.4892 27.4034 25.4737 30.7077 24.8299V24.826ZM50.2319 24.2574C50.5324 24.0229 50.6813 23.7341 50.7396 23.3986C50.7694 23.2289 50.6593 23.1862 50.5078 23.1913C49.1891 23.2315 47.8899 23.4258 46.6024 23.703C46.4884 23.7276 46.3861 23.7988 46.2773 23.8481V23.931C46.3965 23.9789 46.5143 24.0605 46.6361 24.067C47.1283 24.0916 47.6231 24.1175 48.1153 24.0968C48.6814 24.0722 49.2448 23.997 49.8109 23.9504C50.0168 23.9336 50.1943 23.9763 50.2306 24.2587L50.2319 24.2574Z" stroke="#39FF14" stroke-width="0.5" stroke-miterlimit="10"/>
<path d="M49.7668 21.7277C48.8031 21.7277 47.9301 21.7121 47.0571 21.7328C46.5571 21.7445 46.1568 21.9738 45.912 22.431C45.7423 22.7497 45.4833 22.8934 45.1167 22.8805C44.7203 22.8662 44.3227 22.9012 43.9276 22.8766C43.6012 22.8559 43.4937 22.7406 43.5546 22.4181C43.6077 22.1344 43.7139 21.8391 43.8745 21.602C44.3291 20.9285 44.9561 20.4466 45.6944 20.1098C46.0972 19.9259 46.5143 19.8987 46.9379 20.0075C48.0285 20.2873 48.8705 20.9751 49.7655 21.7277H49.7668Z" stroke="#39FF14" stroke-width="0.5" stroke-miterlimit="10"/>
<path d="M41.3267 41.3852C41.2814 40.6611 41.2386 40.0161 41.2049 39.3697C41.2023 39.3218 41.2541 39.2505 41.2995 39.2246C41.5262 39.0964 41.7541 38.9682 41.9925 38.8658C42.0676 38.8335 42.1894 38.8542 42.2684 38.893C43.2269 39.3645 43.9743 40.0575 44.4639 41.0173C44.5753 41.2363 44.3862 41.3049 44.2852 41.4111C44.1932 41.5096 44.0909 41.652 43.9277 41.5096C43.6906 41.3023 43.4484 41.1002 43.2243 40.88C42.9342 40.5964 42.9238 40.5912 42.5546 40.779C42.1647 40.9772 41.7697 41.1676 41.328 41.3865L41.3267 41.3852Z" stroke="#FEFEFE" stroke-width="0.5" stroke-miterlimit="10"/>
<path d="M42.5806 36.3931C42.5806 35.7208 42.0404 35.1742 41.3746 35.1742C40.7088 35.1742 40.1687 35.7195 40.1687 36.3931C40.1687 37.0666 40.7088 37.612 41.3746 37.612C42.0404 37.612 42.5806 37.0666 42.5806 36.3931ZM42.0987 36.3931C42.0987 36.7972 41.7749 37.1236 41.3759 37.1236C40.977 37.1236 40.6531 36.7959 40.6531 36.3931C40.6531 35.9902 40.977 35.6625 41.3759 35.6625C41.7749 35.6625 42.0987 35.9902 42.0987 36.3931Z" fill="#FEFEFE" stroke="white" stroke-width="0.5" stroke-miterlimit="10"/>
<path d="M56.2822 33.3465C56.2822 33.0201 56.1501 32.7546 55.9869 32.7546C55.8237 32.7546 55.6915 33.0188 55.6915 33.3465C55.6915 33.6742 55.8237 33.9385 55.9869 33.9385C56.1501 33.9385 56.2822 33.6742 56.2822 33.3465ZM56.1643 33.3465C56.1643 33.5421 56.0853 33.7014 55.9869 33.7014C55.8884 33.7014 55.8094 33.5421 55.8094 33.3465C55.8094 33.1509 55.8884 32.9916 55.9869 32.9916C56.0853 32.9916 56.1643 33.1509 56.1643 33.3465Z" fill="#FEFEFE" stroke="white" stroke-width="0.5" stroke-miterlimit="10"/>
<path d="M32.1688 32.2377V35.4436C32.1688 35.9384 32.0989 36.3814 31.959 36.7752C31.8191 37.1677 31.6131 37.5006 31.3411 37.7726C31.0691 38.0446 30.7349 38.2518 30.3398 38.3943C29.9448 38.5368 29.494 38.6081 28.9888 38.6081H23.7144V35.4099C23.7144 34.9268 23.7856 34.4877 23.9281 34.0952C24.0706 33.7027 24.2778 33.3685 24.5498 33.0939C24.8218 32.8193 25.1547 32.6082 25.5472 32.4592C25.9397 32.3103 26.3892 32.2365 26.8943 32.2365H32.1688V32.2377Z" stroke="#39FF14" stroke-width="0.5" stroke-miterlimit="10"/>
<path d="M30.6197 33.7377H26.928C26.6094 33.7377 26.3425 33.7649 26.1288 33.8206C25.9151 33.875 25.7441 33.9696 25.6185 34.1017C25.4915 34.2338 25.4009 34.4074 25.3465 34.6263C25.2921 34.8439 25.2636 35.1172 25.2636 35.4475V37.1081H28.9552C29.2686 37.1081 29.5303 37.0822 29.7427 37.0304C29.9539 36.9786 30.1248 36.8879 30.2531 36.7571C30.3826 36.6275 30.4759 36.4553 30.5329 36.2364C30.5912 36.0188 30.6197 35.7454 30.6197 35.4151V33.7377ZM22.8815 33.7377H19.9554V38.6081H18.4062V33.7377H17.335C16.6588 33.7377 16.2936 34.0615 16.2392 34.7105H14.7807C14.9128 33.0629 15.8467 32.2378 17.5824 32.2378H22.8815V33.7377ZM14.3519 38.6081H6.40002V35.41C6.40002 34.9152 6.46997 34.4722 6.60986 34.0784C6.74976 33.6859 6.95571 33.353 7.22772 33.081C7.49974 32.809 7.83393 32.6004 8.229 32.4541C8.62406 32.309 9.07483 32.2352 9.58 32.2352H14.3519V33.7351H9.61368C8.5036 33.7351 7.94921 34.3051 7.94921 35.4449V37.1055H14.3519V38.6055V38.6081Z" stroke="#39FF14" stroke-width="0.5" stroke-miterlimit="10"/>
</svg>
